<svg width="24" height="24" viewBox="0 0 24 24" fill="none" xmlns="http://www.w3.org/2000/svg">
<path d="M20.0001 6C20.255 6.00028 20.5001 6.09788 20.6855 6.27285C20.8708 6.44782 20.9823 6.68695 20.9973 6.94139C21.0122 7.19584 20.9294 7.44638 20.7658 7.64183C20.6023 7.83729 20.3702 7.9629 20.1171 7.993L20.0001 8H19.9191L19.0001 19C19.0002 19.7652 18.7078 20.5015 18.1828 21.0583C17.6579 21.615 16.94 21.9501 16.1761 21.995L16.0001 22H8.00011C6.40211 22 5.09611 20.751 5.00811 19.25L5.00311 19.083L4.08011 8H4.00011C3.74523 7.99972 3.50008 7.90212 3.31474 7.72715C3.12941 7.55218 3.01788 7.31305 3.00294 7.05861C2.988 6.80416 3.07079 6.55362 3.23438 6.35817C3.39797 6.16271 3.63002 6.0371 3.88311 6.007L4.00011 6H20.0001ZM10.5111 11.14C10.3016 11.0153 10.0537 10.9714 9.81412 11.0166C9.57452 11.0619 9.3597 11.1931 9.21006 11.3856C9.06042 11.5781 8.98628 11.8187 9.00157 12.062C9.01687 12.3054 9.12055 12.5347 9.29311 12.707L10.5851 14L9.29311 15.293L9.21011 15.387C9.0547 15.588 8.98162 15.8406 9.00571 16.0935C9.02981 16.3464 9.14927 16.5807 9.33983 16.7488C9.5304 16.9168 9.77778 17.006 10.0317 16.9982C10.2857 16.9905 10.5272 16.8863 10.7071 16.707L12.0001 15.415L13.2931 16.707L13.3871 16.79C13.5881 16.9454 13.8407 17.0185 14.0936 16.9944C14.3466 16.9703 14.5808 16.8508 14.7489 16.6603C14.9169 16.4697 15.0061 16.2223 14.9983 15.9684C14.9906 15.7144 14.8865 15.473 14.7071 15.293L13.4151 14L14.7071 12.707L14.7901 12.613C14.9455 12.412 15.0186 12.1594 14.9945 11.9065C14.9704 11.6536 14.851 11.4193 14.6604 11.2512C14.4698 11.0832 14.2224 10.994 13.9685 11.0018C13.7145 11.0095 13.4731 11.1137 13.2931 11.293L12.0001 12.585L10.7071 11.293L10.6131 11.21L10.5111 11.14ZM14.0001 2C14.5305 2 15.0393 2.21071 15.4143 2.58579C15.7894 2.96086 16.0001 3.46957 16.0001 4C15.9998 4.25488 15.9022 4.50003 15.7273 4.68537C15.5523 4.8707 15.3132 4.98223 15.0587 4.99717C14.8043 5.01211 14.5537 4.92933 14.3583 4.76574C14.1628 4.60214 14.0372 4.3701 14.0071 4.117L14.0001 4H10.0001L9.99311 4.117C9.96301 4.3701 9.8374 4.60214 9.64195 4.76574C9.44649 4.92933 9.19595 5.01211 8.94151 4.99717C8.68707 4.98223 8.44793 4.8707 8.27296 4.68537C8.09799 4.50003 8.0004 4.25488 8.00011 4C7.99995 3.49542 8.19052 3.00943 8.53361 2.63945C8.8767 2.26947 9.34696 2.04284 9.85011 2.005L10.0001 2H14.0001Z" fill="black"/>
</svg>
