<svg width="14" height="14" viewBox="0 0 14 14" fill="none" xmlns="http://www.w3.org/2000/svg">
<g clip-path="url(#clip0_692_29)">
<path fill-rule="evenodd" clip-rule="evenodd" d="M1.707 0.292919C1.5184 0.110761 1.2658 0.00996641 1.0036 0.0122448C0.741407 0.0145233 0.490594 0.119692 0.305186 0.3051C0.119778 0.490508 0.0146093 0.741321 0.0123308 1.00352C0.0100524 1.26571 0.110847 1.51832 0.293005 1.70692L5.586 6.99992L0.293005 12.2929C0.197495 12.3852 0.121312 12.4955 0.0689035 12.6175C0.0164945 12.7395 -0.0110918 12.8707 -0.0122456 13.0035C-0.0133994 13.1363 0.0119023 13.268 0.0621832 13.3909C0.112464 13.5138 0.186717 13.6254 0.28061 13.7193C0.374503 13.8132 0.486155 13.8875 0.609051 13.9377C0.731947 13.988 0.863627 14.0133 0.996406 14.0122C1.12919 14.011 1.26041 13.9834 1.38241 13.931C1.50441 13.8786 1.61476 13.8024 1.707 13.7069L7 8.41392L12.293 13.7069C12.4816 13.8891 12.7342 13.9899 12.9964 13.9876C13.2586 13.9853 13.5094 13.8801 13.6948 13.6947C13.8802 13.5093 13.9854 13.2585 13.9877 12.9963C13.99 12.7341 13.8892 12.4815 13.707 12.2929L8.414 6.99992L13.707 1.70692C13.8892 1.51832 13.99 1.26571 13.9877 1.00352C13.9854 0.741321 13.8802 0.490508 13.6948 0.3051C13.5094 0.119692 13.2586 0.0145233 12.9964 0.0122448C12.7342 0.00996641 12.4816 0.110761 12.293 0.292919L7 5.58592L1.707 0.292919Z"/>
</g>
<defs>
<clipPath id="clip0_692_29">
<rect width="14" height="14"/>
</clipPath>
</defs>
</svg>
