<svg width="24" height="24" viewBox="0 0 24 24" fill="none" xmlns="http://www.w3.org/2000/svg">
<path d="M10.04 9.2L9.3 11H14.75L14 9.2L19.55 12L14 14.8L14.75 13H9.3L10.04 14.8L4.5 12L10.04 9.2ZM20.83 22H3.17C2.53 22 2 21.5 2 20.83V3.17C2 2.53 2.53 2 3.17 2H20.83C21.5 2 22 2.53 22 3.17V20.83C22 21.47 21.5 22 20.83 22ZM11.93 3.76C7.41 3.82 3.78 7.5 3.76 12C3.72 16.5 7.35 20.2 11.86 20.24H12C14.1768 20.2125 16.2568 19.3356 17.7962 17.7962C19.3356 16.2568 20.2125 14.1768 20.24 12C20.31 7.5 16.74 3.83 12.26 3.76C12.15 3.75 12.04 3.76 11.93 3.76Z" fill="#E9EBF3"/>
</svg>
