<svg width="17" height="15" viewBox="0 0 17 15" fill="none" xmlns="http://www.w3.org/2000/svg">
<path d="M8.12408 4.52753L10.5016 6.88983V6.77023C10.5016 6.17543 10.2645 5.60503 9.84258 5.18443C9.42066 4.76383 8.84836 4.52753 8.25155 4.52753H8.12408ZM4.89909 5.12553L6.0616 6.28433C6.02408 6.44133 6.00157 6.59833 6.00157 6.77023C6.00157 7.36503 6.23859 7.93553 6.66061 8.35613C7.08254 8.77673 7.65483 9.01303 8.25155 9.01303C8.41653 9.01303 8.58162 8.99053 8.7391 8.95323L9.90161 10.1119C9.39905 10.3586 8.84406 10.5081 8.25155 10.5081C7.25703 10.5081 6.30323 10.1143 5.59996 9.41333C4.89669 8.71233 4.50159 7.76163 4.50159 6.77023C4.50159 6.17963 4.65157 5.62643 4.89909 5.12553ZM0.751559 0.991432L2.46152 2.69593L2.7991 3.03233C1.56156 4.00423 0.586562 5.27513 0.0015564 6.77023C1.29905 10.0521 4.50159 12.3771 8.25155 12.3771C9.41405 12.3771 10.524 12.1528 11.5366 11.7491L11.8591 12.0631L14.0491 14.2461L15.0016 13.2966L1.70406 0.0419922M8.25155 3.03233C9.24617 3.03233 10.2 3.42613 10.9032 4.12713C11.6065 4.82813 12.0016 5.77893 12.0016 6.77023C12.0016 7.24873 11.9041 7.71223 11.7316 8.13083L13.9291 10.3212C15.0541 9.38683 15.9541 8.16073 16.5016 6.77023C15.2041 3.48833 12.0016 1.16333 8.25155 1.16333C7.2016 1.16333 6.19657 1.35023 5.25158 1.68663L6.87903 3.29403C7.30655 3.12953 7.76409 3.03233 8.25155 3.03233Z" fill="#343F52"/>
</svg>
