<svg width="406" height="388" viewBox="0 0 406 388" fill="none" xmlns="http://www.w3.org/2000/svg">
<path d="M51.1099 86.3076H334.127C341.53 86.3076 347.167 92.9443 345.969 100.249L310.06 319.249C309.109 325.05 304.096 329.308 298.218 329.308H51.1099C44.4824 329.308 39.1099 323.935 39.1099 317.308V98.3076C39.1099 91.6802 44.4824 86.3076 51.1099 86.3076Z" fill="#E9EBF3" stroke="#243F8F" stroke-width="4"/>
<rect x="125.347" y="3.37909" width="200.506" height="161.252" rx="6" transform="rotate(24.5168 125.347 3.37909)" fill="#E9EBF3" stroke="#243F8F" stroke-width="4"/>
<path d="M159.61 103.805C159.61 103.805 174.11 82.5873 199.61 94.8076C223.61 106.309 217.11 130.805 217.11 130.805" stroke="#243F8F" stroke-width="4" stroke-linecap="round"/>
<circle cx="172.61" cy="63.8076" r="4.5" fill="#243F8F"/>
<circle cx="238.61" cy="92.8076" r="4.5" fill="#243F8F"/>
<path d="M308.11 160.808V317.308C308.11 323.935 302.737 329.308 296.11 329.308H14.1099C7.48245 329.308 2.10986 323.935 2.10986 317.308V117.308C2.10986 110.68 7.48245 105.308 14.1099 105.308H118.176C122.623 105.308 126.705 107.767 128.784 111.699L143.899 140.286C146.671 145.528 152.114 148.808 158.044 148.808H296.11C302.737 148.808 308.11 154.18 308.11 160.808Z" fill="#E9EBF3" stroke="#243F8F" stroke-width="4"/>
<circle cx="252.11" cy="236.308" r="84" fill="#E9EBF3" stroke="#243F8F" stroke-width="5"/>
<rect x="335.041" y="300.308" width="97.4587" height="27.5683" rx="8" transform="rotate(43.3671 335.041 300.308)" fill="#243F8F"/>
<rect x="311.474" y="294.05" width="22.5994" height="3.77969" transform="rotate(44.6485 311.474 294.05)" fill="#243F8F"/>
</svg>
