<svg width="16" height="16" viewBox="0 0 16 16" fill="none" xmlns="http://www.w3.org/2000/svg">
<path d="M10.68 11.74C9.47436 12.6758 7.95742 13.117 6.43795 12.9738C4.91848 12.8305 3.5107 12.1137 2.50116 10.969C1.49163 9.82442 0.956228 8.33811 1.00394 6.81265C1.05166 5.2872 1.6789 3.83725 2.758 2.75797C3.83728 1.67887 5.28723 1.05163 6.81269 1.00391C8.33814 0.956198 9.82445 1.4916 10.9691 2.50113C12.1137 3.51067 12.8306 4.91845 12.9738 6.43792C13.117 7.95739 12.6758 9.47433 11.74 10.68L14.78 13.72C14.8787 13.8116 14.9509 13.9282 14.9889 14.0575C15.0269 14.1867 15.0294 14.3238 14.996 14.4544C14.9626 14.5849 14.8947 14.704 14.7993 14.7991C14.7039 14.8943 14.5846 14.9619 14.454 14.995C14.3236 15.0283 14.1867 15.0259 14.0575 14.9881C13.9284 14.9502 13.8118 14.8784 13.72 14.78L10.68 11.74ZM11.5 6.99997C11.5089 6.40357 11.3991 5.81136 11.177 5.25779C10.9549 4.70421 10.625 4.20032 10.2064 3.77542C9.78779 3.35053 9.28887 3.01311 8.73867 2.78281C8.18847 2.5525 7.59796 2.43389 7.0015 2.43389C6.40504 2.43389 5.81453 2.5525 5.26432 2.78281C4.71412 3.01311 4.2152 3.35053 3.7966 3.77542C3.37799 4.20032 3.04805 4.70421 2.82597 5.25779C2.60389 5.81136 2.49411 6.40357 2.503 6.99997C2.52061 8.18143 3.00231 9.30853 3.84403 10.1378C4.68574 10.9671 5.81991 11.4319 7.0015 11.4319C8.18309 11.4319 9.31725 10.9671 10.159 10.1378C11.0007 9.30853 11.4824 8.18143 11.5 6.99997Z" fill="black"/>
</svg>
