<svg width="25" height="24" viewBox="0 0 25 24" fill="none" xmlns="http://www.w3.org/2000/svg">
<path d="M21.3604 16.75V19.25C21.3604 19.7804 21.1496 20.2891 20.7746 20.6642C20.3995 21.0393 19.8908 21.25 19.3604 21.25H4.86035C4.32992 21.25 3.82121 21.0393 3.44614 20.6642C3.07107 20.2891 2.86035 19.7804 2.86035 19.25V16.75M21.3604 16.75C21.3604 16.2196 21.1496 15.7109 20.7746 15.3358C20.3995 14.9607 19.8908 14.75 19.3604 14.75H4.86035C4.32992 14.75 3.82121 14.9607 3.44614 15.3358C3.07107 15.7109 2.86035 16.2196 2.86035 16.75M21.3604 16.75V15.12C21.3602 14.8746 21.33 14.6301 21.2704 14.392L18.9284 5.022C18.766 4.37307 18.3915 3.79701 17.8642 3.38536C17.337 2.97371 16.6873 2.75007 16.0184 2.75H8.20235C7.53343 2.75007 6.88373 2.97371 6.35647 3.38536C5.82922 3.79701 5.45468 4.37307 5.29235 5.022L2.95035 14.392C2.89077 14.6297 2.86054 14.8739 2.86035 15.119V16.75" stroke="#343F52" stroke-width="1.5" stroke-linecap="round" stroke-linejoin="round"/>
<path d="M18.1104 19C18.6626 19 19.1104 18.5523 19.1104 18C19.1104 17.4477 18.6626 17 18.1104 17C17.5581 17 17.1104 17.4477 17.1104 18C17.1104 18.5523 17.5581 19 18.1104 19Z" fill="#343F52"/>
</svg>
