<svg width="22" height="22" viewBox="0 0 22 22" fill="none" xmlns="http://www.w3.org/2000/svg">
<path d="M1.19144 7.70105C1.80094 7.70105 2.12894 7.36105 2.12894 6.74005V3.97505C2.12894 2.75605 2.78494 2.13505 3.95694 2.13505H6.79294C7.40244 2.13505 7.74194 1.79505 7.74194 1.18555C7.74194 0.588047 7.40194 0.248047 6.79294 0.248047H3.92194C1.48444 0.248047 0.241943 1.45505 0.241943 3.86905V6.74055C0.241943 7.36155 0.581943 7.70105 1.19144 7.70105ZM20.8084 7.70105C21.4294 7.70105 21.7579 7.36105 21.7579 6.74005V3.86905C21.7579 1.45505 20.5389 0.248047 18.0779 0.248047H15.2184C14.5974 0.248047 14.2579 0.588047 14.2579 1.18555C14.2579 1.79505 14.5979 2.13505 15.2184 2.13505H18.0544C19.2029 2.13505 19.8709 2.75605 19.8709 3.97505V6.74005C19.8709 7.36155 20.2109 7.70105 20.8084 7.70105ZM10.4959 9.98605V5.89655C10.4959 5.61555 10.2734 5.38105 9.98044 5.38105H5.90244C5.60944 5.38105 5.38644 5.61505 5.38644 5.89655V9.98655C5.38644 10.2675 5.60944 10.4905 5.90244 10.4905H9.98044C10.2734 10.4905 10.4959 10.267 10.4959 9.98605ZM12.5234 6.40105H15.5934V9.47105H12.5234V6.40105ZM14.7034 8.58105V7.30305H13.4259V8.58055L14.7034 8.58105ZM8.58594 8.58105V7.30305H7.29694V8.58055L8.58594 8.58105ZM6.40594 12.53H9.47644V15.6H6.40644L6.40594 12.53ZM16.4609 12.928V11.651H15.1834V12.9285L16.4609 12.928ZM12.9334 12.928V11.651H11.6559V12.9285L12.9334 12.928ZM8.58594 14.698V13.42H7.29694V14.697L8.58594 14.698ZM14.7029 14.698V13.42H13.4139V14.697L14.7029 14.698ZM15.2184 21.7525H18.0784C20.5389 21.7525 21.7579 20.5335 21.7579 18.1195V15.26C21.7579 14.6385 21.4179 14.299 20.8084 14.299C20.1989 14.299 19.8709 14.639 19.8709 15.26V18.025C19.8709 19.244 19.2029 19.865 18.0544 19.865H15.2184C14.5974 19.865 14.2579 20.205 14.2579 20.8145C14.2579 21.412 14.5979 21.7525 15.2184 21.7525ZM3.92194 21.752H6.79294C7.40244 21.752 7.74194 21.412 7.74194 20.8145C7.74194 20.205 7.40194 19.8655 6.79294 19.8655H3.95694C2.78494 19.8655 2.12894 19.244 2.12894 18.0255V15.26C2.12894 14.6385 1.78894 14.299 1.19144 14.299C0.570443 14.299 0.241943 14.639 0.241943 15.26V18.119C0.241943 20.545 1.48444 21.752 3.92194 21.752ZM12.9334 16.467V15.1895H11.6559V16.467H12.9334ZM16.4609 16.467V15.1895H15.1834V16.467H16.4609ZM16.6134 9.98655V5.89655C16.6134 5.61555 16.3904 5.38105 16.0974 5.38105H12.0199C11.7269 5.38105 11.5044 5.61505 11.5044 5.89655V9.98655C11.5044 10.2675 11.7269 10.4905 12.0194 10.4905H16.0979C16.3909 10.4905 16.6134 10.2675 16.6134 9.98655ZM6.40594 6.40005H9.47644V9.47005H6.40644L6.40594 6.40005ZM10.4959 16.103V12.013C10.4959 11.732 10.2734 11.5095 9.98044 11.5095H5.90244C5.60944 11.5095 5.38644 11.732 5.38644 12.013V16.103C5.38644 16.3845 5.60944 16.6185 5.90244 16.6185H9.98044C10.2734 16.6185 10.4959 16.3845 10.4959 16.103Z" fill="black"/>
</svg>
