<svg width="240" height="23" viewBox="0 0 240 23" fill="none" xmlns="http://www.w3.org/2000/svg">
<path d="M7.781 22L0.682 0.299999H5.89L12.059 19.52H9.455L15.903 0.299999H20.553L26.753 19.52H24.242L30.566 0.299999H35.371L28.272 22H22.878L17.391 5.136H18.817L13.175 22H7.781ZM42.7936 9.042H53.2406V12.948H42.7936V9.042ZM43.1656 17.97H54.9766V22H38.1746V0.299999H54.5736V4.33H43.1656V17.97ZM58.9724 22V0.299999H69.5744C72.3024 0.299999 74.3484 0.816665 75.7124 1.85C77.0971 2.88333 77.7894 4.24733 77.7894 5.942C77.7894 7.07867 77.5104 8.07067 76.9524 8.918C76.3944 9.74467 75.6297 10.3853 74.6584 10.84C73.6871 11.2947 72.5711 11.522 71.3104 11.522L71.8994 10.251C73.2634 10.251 74.4724 10.4783 75.5264 10.933C76.5804 11.367 77.3967 12.018 77.9754 12.886C78.5747 13.754 78.8744 14.8183 78.8744 16.079C78.8744 17.939 78.1407 19.396 76.6734 20.45C75.2061 21.4833 73.0464 22 70.1944 22H58.9724ZM63.9634 18.218H69.8224C71.1244 18.218 72.1061 18.0113 72.7674 17.598C73.4494 17.164 73.7904 16.482 73.7904 15.552C73.7904 14.6427 73.4494 13.971 72.7674 13.537C72.1061 13.0823 71.1244 12.855 69.8224 12.855H63.5914V9.197H68.9544C70.1737 9.197 71.1037 8.99033 71.7444 8.577C72.4057 8.143 72.7364 7.492 72.7364 6.624C72.7364 5.77667 72.4057 5.14633 71.7444 4.733C71.1037 4.299 70.1737 4.082 68.9544 4.082H63.9634V18.218ZM93.0615 22.248C90.8915 22.248 88.9282 21.7727 87.1715 20.822C85.4355 19.8507 84.0715 18.528 83.0795 16.854C82.0875 15.1593 81.5915 13.258 81.5915 11.15C81.5915 9.042 82.0875 7.151 83.0795 5.477C84.0715 3.78233 85.4458 2.45967 87.2025 1.509C88.9592 0.537666 90.9225 0.0519999 93.0925 0.0519999C94.7872 0.0519999 96.3372 0.341333 97.7425 0.92C99.1478 1.478 100.347 2.315 101.339 3.431L99.3235 5.384C97.6908 3.66867 95.6552 2.811 93.2165 2.811C91.6045 2.811 90.1475 3.17267 88.8455 3.896C87.5435 4.61933 86.5205 5.62167 85.7765 6.903C85.0532 8.16367 84.6915 9.57933 84.6915 11.15C84.6915 12.7207 85.0532 14.1467 85.7765 15.428C86.5205 16.6887 87.5435 17.6807 88.8455 18.404C90.1475 19.1273 91.6045 19.489 93.2165 19.489C95.6345 19.489 97.6702 18.621 99.3235 16.885L101.339 18.838C100.347 19.954 99.1375 20.8013 97.7115 21.38C96.3062 21.9587 94.7562 22.248 93.0615 22.248ZM115.103 22.248C112.912 22.248 110.938 21.7727 109.182 20.822C107.425 19.8507 106.04 18.5177 105.028 16.823C104.036 15.1283 103.54 13.2373 103.54 11.15C103.54 9.06267 104.036 7.17167 105.028 5.477C106.04 3.78233 107.425 2.45967 109.182 1.509C110.938 0.537666 112.912 0.0519999 115.103 0.0519999C117.273 0.0519999 119.236 0.537666 120.993 1.509C122.749 2.45967 124.124 3.78233 125.116 5.477C126.108 7.151 126.604 9.042 126.604 11.15C126.604 13.258 126.108 15.1593 125.116 16.854C124.124 18.528 122.749 19.8507 120.993 20.822C119.236 21.7727 117.273 22.248 115.103 22.248ZM115.103 19.489C116.694 19.489 118.12 19.1273 119.381 18.404C120.662 17.6807 121.664 16.6887 122.388 15.428C123.132 14.1467 123.504 12.7207 123.504 11.15C123.504 9.57933 123.132 8.16367 122.388 6.903C121.664 5.62167 120.662 4.61933 119.381 3.896C118.12 3.17267 116.694 2.811 115.103 2.811C113.511 2.811 112.065 3.17267 110.763 3.896C109.481 4.61933 108.469 5.62167 107.725 6.903C107.001 8.16367 106.64 9.57933 106.64 11.15C106.64 12.7207 107.001 14.1467 107.725 15.428C108.469 16.6887 109.481 17.6807 110.763 18.404C112.065 19.1273 113.511 19.489 115.103 19.489ZM150.004 0.299999V22H147.462L134.442 5.818V22H131.342V0.299999H133.884L146.904 16.482V0.299999H150.004ZM175.161 0.299999V22H172.619L159.599 5.818V22H156.499V0.299999H159.041L172.061 16.482V0.299999H175.161ZM197.404 19.303V22H181.656V0.299999H196.97V2.997H184.756V9.662H195.637V12.297H184.756V19.303H197.404ZM212.036 22.248C209.866 22.248 207.903 21.7727 206.146 20.822C204.41 19.8507 203.046 18.528 202.054 16.854C201.062 15.1593 200.566 13.258 200.566 11.15C200.566 9.042 201.062 7.151 202.054 5.477C203.046 3.78233 204.42 2.45967 206.177 1.509C207.934 0.537666 209.897 0.0519999 212.067 0.0519999C213.762 0.0519999 215.312 0.341333 216.717 0.92C218.122 1.478 219.321 2.315 220.313 3.431L218.298 5.384C216.665 3.66867 214.63 2.811 212.191 2.811C210.579 2.811 209.122 3.17267 207.82 3.896C206.518 4.61933 205.495 5.62167 204.751 6.903C204.028 8.16367 203.666 9.57933 203.666 11.15C203.666 12.7207 204.028 14.1467 204.751 15.428C205.495 16.6887 206.518 17.6807 207.82 18.404C209.122 19.1273 210.579 19.489 212.191 19.489C214.609 19.489 216.645 18.621 218.298 16.885L220.313 18.838C219.321 19.954 218.112 20.8013 216.686 21.38C215.281 21.9587 213.731 22.248 212.036 22.248ZM228.802 2.997H221.362V0.299999H239.311V2.997H231.871V22H228.802V2.997Z" fill="#243F8F"/>
</svg>
