<svg width="163" height="16" viewBox="0 0 163 16" fill="none" xmlns="http://www.w3.org/2000/svg">
<path d="M5.271 15L0.462 0.299999H3.99L8.169 13.32H6.405L10.773 0.299999H13.923L18.123 13.32H16.422L20.706 0.299999H23.961L19.152 15H15.498L11.781 3.576H12.747L8.925 15H5.271ZM28.9892 6.222H36.0662V8.868H28.9892V6.222ZM29.2412 12.27H37.2422V15H25.8602V0.299999H36.9692V3.03H29.2412V12.27ZM39.9491 15V0.299999H47.1311C48.9791 0.299999 50.3651 0.649999 51.2891 1.35C52.2271 2.05 52.6961 2.974 52.6961 4.122C52.6961 4.892 52.5071 5.564 52.1291 6.138C51.7511 6.698 51.2331 7.132 50.5751 7.44C49.9171 7.748 49.1611 7.902 48.3071 7.902L48.7061 7.041C49.6301 7.041 50.4491 7.195 51.1631 7.503C51.8771 7.797 52.4301 8.238 52.8221 8.826C53.2281 9.414 53.4311 10.135 53.4311 10.989C53.4311 12.249 52.9341 13.236 51.9401 13.95C50.9461 14.65 49.4831 15 47.5511 15H39.9491ZM43.3301 12.438H47.2991C48.1811 12.438 48.8461 12.298 49.2941 12.018C49.7561 11.724 49.9871 11.262 49.9871 10.632C49.9871 10.016 49.7561 9.561 49.2941 9.267C48.8461 8.959 48.1811 8.805 47.2991 8.805H43.0781V6.327H46.7111C47.5371 6.327 48.1671 6.187 48.6011 5.907C49.0491 5.613 49.2731 5.172 49.2731 4.584C49.2731 4.01 49.0491 3.583 48.6011 3.303C48.1671 3.009 47.5371 2.862 46.7111 2.862H43.3301V12.438ZM63.0417 15.168C61.5717 15.168 60.2417 14.846 59.0517 14.202C57.8757 13.544 56.9517 12.648 56.2797 11.514C55.6077 10.366 55.2717 9.078 55.2717 7.65C55.2717 6.222 55.6077 4.941 56.2797 3.807C56.9517 2.659 57.8827 1.763 59.0727 1.119C60.2627 0.461 61.5927 0.132 63.0627 0.132C64.2107 0.132 65.2607 0.328 66.2127 0.72C67.1647 1.098 67.9767 1.665 68.6487 2.421L67.2837 3.744C66.1777 2.582 64.7987 2.001 63.1467 2.001C62.0547 2.001 61.0677 2.246 60.1857 2.736C59.3037 3.226 58.6107 3.905 58.1067 4.773C57.6167 5.627 57.3717 6.586 57.3717 7.65C57.3717 8.714 57.6167 9.68 58.1067 10.548C58.6107 11.402 59.3037 12.074 60.1857 12.564C61.0677 13.054 62.0547 13.299 63.1467 13.299C64.7847 13.299 66.1637 12.711 67.2837 11.535L68.6487 12.858C67.9767 13.614 67.1577 14.188 66.1917 14.58C65.2397 14.972 64.1897 15.168 63.0417 15.168ZM77.9728 15.168C76.4888 15.168 75.1518 14.846 73.9618 14.202C72.7718 13.544 71.8338 12.641 71.1478 11.493C70.4758 10.345 70.1398 9.064 70.1398 7.65C70.1398 6.236 70.4758 4.955 71.1478 3.807C71.8338 2.659 72.7718 1.763 73.9618 1.119C75.1518 0.461 76.4888 0.132 77.9728 0.132C79.4428 0.132 80.7728 0.461 81.9628 1.119C83.1528 1.763 84.0838 2.659 84.7558 3.807C85.4278 4.941 85.7638 6.222 85.7638 7.65C85.7638 9.078 85.4278 10.366 84.7558 11.514C84.0838 12.648 83.1528 13.544 81.9628 14.202C80.7728 14.846 79.4428 15.168 77.9728 15.168ZM77.9728 13.299C79.0508 13.299 80.0168 13.054 80.8708 12.564C81.7388 12.074 82.4178 11.402 82.9078 10.548C83.4118 9.68 83.6638 8.714 83.6638 7.65C83.6638 6.586 83.4118 5.627 82.9078 4.773C82.4178 3.905 81.7388 3.226 80.8708 2.736C80.0168 2.246 79.0508 2.001 77.9728 2.001C76.8948 2.001 75.9148 2.246 75.0328 2.736C74.1648 3.226 73.4788 3.905 72.9748 4.773C72.4848 5.627 72.2398 6.586 72.2398 7.65C72.2398 8.714 72.4848 9.68 72.9748 10.548C73.4788 11.402 74.1648 12.074 75.0328 12.564C75.9148 13.054 76.8948 13.299 77.9728 13.299ZM101.616 0.299999V15H99.8936L91.0736 4.038V15H88.9736V0.299999H90.6956L99.5156 11.262V0.299999H101.616ZM118.658 0.299999V15H116.936L108.116 4.038V15H106.016V0.299999H107.738L116.558 11.262V0.299999H118.658ZM133.726 13.173V15H123.058V0.299999H133.432V2.127H125.158V6.642H132.529V8.427H125.158V13.173H133.726ZM143.637 15.168C142.167 15.168 140.837 14.846 139.647 14.202C138.471 13.544 137.547 12.648 136.875 11.514C136.203 10.366 135.867 9.078 135.867 7.65C135.867 6.222 136.203 4.941 136.875 3.807C137.547 2.659 138.478 1.763 139.668 1.119C140.858 0.461 142.188 0.132 143.658 0.132C144.806 0.132 145.856 0.328 146.808 0.72C147.76 1.098 148.572 1.665 149.244 2.421L147.879 3.744C146.773 2.582 145.394 2.001 143.742 2.001C142.65 2.001 141.663 2.246 140.781 2.736C139.899 3.226 139.206 3.905 138.702 4.773C138.212 5.627 137.967 6.586 137.967 7.65C137.967 8.714 138.212 9.68 138.702 10.548C139.206 11.402 139.899 12.074 140.781 12.564C141.663 13.054 142.65 13.299 143.742 13.299C145.38 13.299 146.759 12.711 147.879 11.535L149.244 12.858C148.572 13.614 147.753 14.188 146.787 14.58C145.835 14.972 144.785 15.168 143.637 15.168ZM154.995 2.127H149.955V0.299999H162.114V2.127H157.074V15H154.995V2.127Z" fill="#343C53"/>
</svg>
